<?xml version="1.0" encoding="UTF-8"?>
<svg viewBox="0 0 1920 1080" xmlns="http://www.w3.org/2000/svg">
  <!-- Background with gradient -->
  <defs>
    <linearGradient id="bgGrad" x1="0%" y1="0%" x2="100%" y2="100%">
      <stop offset="0%" style="stop-color:#1a1a2e"/>
      <stop offset="100%" style="stop-color:#16213e"/>
    </linearGradient>
  </defs>
  
  <rect width="1920" height="1080" fill="url(#bgGrad)"/>
  
  <!-- Decorative elements -->
  <circle cx="1700" cy="200" r="150" fill="#6366f1" opacity="0.1"/>
  <circle cx="200" cy="900" r="100" fill="#22d3ee" opacity="0.1"/>
  
  <!-- Border/Frame -->
  <rect x="40" y="40" width="1840" height="1000" rx="24" ry="24" 
        fill="none" stroke="#3d3d5c" stroke-width="2"/>
  
  <!-- Accent bar -->
  <rect x="40" y="40" width="12" height="1000" rx="6" fill="#6366f1"/>
  
  <!-- Title -->
  <text x="120" y="150" font-family="Arial, sans-serif" font-size="52" font-weight="bold" fill="#ffffff">
    Light-Dependent Reactions
  </text>
  
  <!-- Title underline -->
  <rect x="120" y="175" width="600" height="4" rx="2" fill="#6366f1"/>
  
  <!-- Content -->
  
    <g transform="translate(120, 280)">
      <circle cx="0" cy="12" r="8" fill="#6366f1"/>
      <text x="28" y="18" font-family="Arial, sans-serif" font-size="32" fill="#ffffff">Occur in the thylakoid membranes</text>
    </g>
    <g transform="translate(120, 365)">
      <circle cx="0" cy="12" r="8" fill="#6366f1"/>
      <text x="28" y="18" font-family="Arial, sans-serif" font-size="32" fill="#ffffff">Light energy splits water molecules</text>
    </g>
    <g transform="translate(120, 450)">
      <circle cx="0" cy="12" r="8" fill="#6366f1"/>
      <text x="28" y="18" font-family="Arial, sans-serif" font-size="32" fill="#ffffff">Produces ATP and NADPH (energy carriers)</text>
    </g>
    <g transform="translate(120, 535)">
      <circle cx="0" cy="12" r="8" fill="#6366f1"/>
      <text x="28" y="18" font-family="Arial, sans-serif" font-size="32" fill="#ffffff">Releases oxygen as a byproduct</text>
    </g>
  
  <!-- Slide number -->
  <g transform="translate(1750, 980)">
    <rect x="-60" y="-30" width="100" height="40" rx="20" fill="#6366f1" opacity="0.3"/>
    <text x="0" y="5" font-family="Arial, sans-serif" font-size="24" fill="#ffffff" text-anchor="middle">
      6/10
    </text>
  </g>
  
  <!-- AetherLearn branding -->
  <text x="120" y="1000" font-family="Arial, sans-serif" font-size="22" fill="#6366f1" opacity="0.8">
    AetherLearn
  </text>
</svg>