<svg xmlns="http://www.w3.org/2000/svg" viewBox="0 0 1920 1080">
  <defs>
    <linearGradient id="bg1" x1="0%" y1="0%" x2="100%" y2="100%">
      <stop offset="0%" style="stop-color:#1a1a2e"/>
      <stop offset="100%" style="stop-color:#16213e"/>
    </linearGradient>
    <linearGradient id="accent1" x1="0%" y1="0%" x2="100%" y2="0%">
      <stop offset="0%" style="stop-color:#4ade80"/>
      <stop offset="100%" style="stop-color:#22c55e"/>
    </linearGradient>
  </defs>
  
  <!-- Background -->
  <rect width="1920" height="1080" fill="url(#bg1)"/>
  
  <!-- Decorative circles -->
  <circle cx="150" cy="150" r="100" fill="#4ade80" opacity="0.1"/>
  <circle cx="1800" cy="900" r="150" fill="#22c55e" opacity="0.1"/>
  <circle cx="1700" cy="200" r="80" fill="#86efac" opacity="0.08"/>
  
  <!-- Leaf decoration -->
  <g transform="translate(1500, 300) scale(0.8)" opacity="0.3">
    <ellipse cx="0" cy="0" rx="80" ry="40" fill="#4ade80" transform="rotate(-30)"/>
    <line x1="-60" y1="30" x2="60" y2="-30" stroke="#22c55e" stroke-width="3"/>
  </g>
  
  <!-- Title -->
  <text x="960" y="350" font-family="Arial, sans-serif" font-size="120" font-weight="bold" fill="#ffffff" text-anchor="middle">
    PHOTOSYNTHESIS
  </text>
  
  <!-- Subtitle -->
  <text x="960" y="450" font-family="Arial, sans-serif" font-size="48" fill="#94a3b8" text-anchor="middle">
    The process of life
  </text>
  
  <!-- Decorative line -->
  <rect x="760" y="500" width="400" height="4" rx="2" fill="url(#accent1)"/>
  
  <!-- Class info box -->
  <rect x="760" y="600" width="400" height="80" rx="10" fill="#ffffff" opacity="0.1"/>
  <text x="960" y="650" font-family="Arial, sans-serif" font-size="32" fill="#4ade80" text-anchor="middle">
    Grade 10 • Biology
  </text>
  
  <!-- Sun icon -->
  <g transform="translate(960, 850)">
    <circle cx="0" cy="0" r="40" fill="#fbbf24"/>
    <g stroke="#fbbf24" stroke-width="4">
      <line x1="0" y1="-60" x2="0" y2="-75"/>
      <line x1="42" y1="-42" x2="53" y2="-53"/>
      <line x1="60" y1="0" x2="75" y2="0"/>
      <line x1="42" y1="42" x2="53" y2="53"/>
      <line x1="0" y1="60" x2="0" y2="75"/>
      <line x1="-42" y1="42" x2="-53" y2="53"/>
      <line x1="-60" y1="0" x2="-75" y2="0"/>
      <line x1="-42" y1="-42" x2="-53" y2="-53"/>
    </g>
  </g>
  
  <!-- AetherLearn logo -->
  <text x="100" y="1030" font-family="Arial, sans-serif" font-size="24" fill="#64748b">
    AetherLearn
  </text>
</svg>